<svg xmlns="http://www.w3.org/2000/svg" xmlns:xlink="http://www.w3.org/1999/xlink" height="800" width="1200" viewBox="-72 -45.7615 624 274.569"><defs><linearGradient id="a" gradientUnits="userSpaceOnUse" x1="-6873.648" y1="2774.3" x2="-6636.237" y2="2496.689" gradientTransform="scale(1.02813 -1.02813) rotate(65 -830.492 7208.067)"><stop offset="0" stop-color="#f59723"/><stop offset=".312" stop-color="#f69822"/><stop offset=".838" stop-color="#e87726"/></linearGradient><linearGradient id="b" gradientUnits="userSpaceOnUse" x1="-8630.72" y1="2804.961" x2="-6936.925" y2="2804.961" gradientTransform="scale(1.02813 -1.02813) rotate(65 -830.492 7208.067)"><stop offset=".323" stop-color="#9c2063"/><stop offset=".63" stop-color="#c82037"/><stop offset=".751" stop-color="#cc2135"/><stop offset="1" stop-color="#e87726"/></linearGradient><linearGradient id="c" gradientUnits="userSpaceOnUse" x1="-8426.256" y1="2635.284" x2="-7416.919" y2="2635.284" gradientTransform="scale(1.02813 -1.02813) rotate(65 -830.492 7208.067)"><stop offset="0" stop-color="#282661"/><stop offset=".095" stop-color="#662e8c"/><stop offset=".788" stop-color="#9e2064"/><stop offset=".949" stop-color="#cc2032"/></linearGradient><linearGradient id="d" gradientUnits="userSpaceOnUse" x1="-8535.588" y1="2820.86" x2="-6841.793" y2="2820.86" gradientTransform="scale(1.02813 -1.02813) rotate(65 -830.492 7208.067)"><stop offset=".323" stop-color="#9c2063"/><stop offset=".63" stop-color="#c82037"/><stop offset=".751" stop-color="#cc2135"/><stop offset="1" stop-color="#e87726"/></linearGradient><linearGradient id="e" gradientUnits="userSpaceOnUse" x1="-8412.058" y1="2797.879" x2="-7521.917" y2="2797.879" gradientTransform="scale(1.02813 -1.02813) rotate(65 -830.492 7208.067)"><stop offset="0" stop-color="#282661"/><stop offset=".095" stop-color="#662e8c"/><stop offset=".788" stop-color="#9e2064"/><stop offset=".949" stop-color="#cc2032"/></linearGradient><linearGradient id="f" gradientUnits="userSpaceOnUse" x1="-8535.588" y1="2645.49" x2="-6841.793" y2="2645.49" gradientTransform="scale(1.02813 -1.02813) rotate(65 -830.492 7208.067)"><stop offset=".323" stop-color="#9c2063"/><stop offset=".63" stop-color="#c82037"/><stop offset=".751" stop-color="#cc2135"/><stop offset="1" stop-color="#e87726"/></linearGradient><linearGradient id="g" gradientUnits="userSpaceOnUse" x1="-8640.659" y1="2654.265" x2="-6946.865" y2="2654.265" gradientTransform="scale(1.02813 -1.02813) rotate(65 -830.492 7208.067)"><stop offset=".323" stop-color="#9c2063"/><stop offset=".63" stop-color="#c82037"/><stop offset=".751" stop-color="#cc2135"/><stop offset="1" stop-color="#e87726"/></linearGradient><linearGradient id="h" gradientUnits="userSpaceOnUse" x1="-8535.589" y1="2593.446" x2="-6841.792" y2="2593.446" gradientTransform="scale(1.02813 -1.02813) rotate(65 -830.492 7208.067)"><stop offset=".323" stop-color="#9c2063"/><stop offset=".63" stop-color="#c82037"/><stop offset=".751" stop-color="#cc2135"/><stop offset="1" stop-color="#e87726"/></linearGradient><linearGradient id="i" gradientUnits="userSpaceOnUse" x1="-8535.589" y1="2599.324" x2="-6841.792" y2="2599.324" gradientTransform="scale(1.02813 -1.02813) rotate(65 -830.492 7208.067)"><stop offset=".323" stop-color="#9c2063"/><stop offset=".63" stop-color="#c82037"/><stop offset=".751" stop-color="#cc2135"/><stop offset="1" stop-color="#e87726"/></linearGradient><linearGradient id="j" gradientUnits="userSpaceOnUse" x1="-7584.039" y1="2600.552" x2="-7209.654" y2="2600.552" gradientTransform="scale(1.02813 -1.02813) rotate(65 -830.492 7208.067)"><stop offset=".323" stop-color="#9c2063"/><stop offset=".63" stop-color="#c82037"/><stop offset=".751" stop-color="#cc2135"/><stop offset="1" stop-color="#e87726"/></linearGradient><linearGradient y2="2496.689" x2="-6636.237" y1="2774.3" x1="-6873.648" gradientTransform="scale(1.02813 -1.02813) rotate(65 -830.492 7208.067)" gradientUnits="userSpaceOnUse" id="k" xlink:href="#a"/><linearGradient y2="2804.961" x2="-6936.925" y1="2804.961" x1="-8630.72" gradientTransform="scale(1.02813 -1.02813) rotate(65 -830.492 7208.067)" gradientUnits="userSpaceOnUse" id="l" xlink:href="#b"/><linearGradient y2="2635.284" x2="-7416.919" y1="2635.284" x1="-8426.256" gradientTransform="scale(1.02813 -1.02813) rotate(65 -830.492 7208.067)" gradientUnits="userSpaceOnUse" id="m" xlink:href="#c"/><linearGradient y2="2820.86" x2="-6841.793" y1="2820.86" x1="-8535.588" gradientTransform="scale(1.02813 -1.02813) rotate(65 -830.492 7208.067)" gradientUnits="userSpaceOnUse" id="n" xlink:href="#d"/><linearGradient y2="2797.879" x2="-7521.917" y1="2797.879" x1="-8412.058" gradientTransform="scale(1.02813 -1.02813) rotate(65 -830.492 7208.067)" gradientUnits="userSpaceOnUse" id="o" xlink:href="#e"/><linearGradient y2="2645.49" x2="-6841.793" y1="2645.49" x1="-8535.588" gradientTransform="scale(1.02813 -1.02813) rotate(65 -830.492 7208.067)" gradientUnits="userSpaceOnUse" id="p" xlink:href="#f"/><linearGradient y2="2654.265" x2="-6946.865" y1="2654.265" x1="-8640.659" gradientTransform="scale(1.02813 -1.02813) rotate(65 -830.492 7208.067)" gradientUnits="userSpaceOnUse" id="q" xlink:href="#g"/><linearGradient y2="2593.446" x2="-6841.792" y1="2593.446" x1="-8535.589" gradientTransform="scale(1.02813 -1.02813) rotate(65 -830.492 7208.067)" gradientUnits="userSpaceOnUse" id="r" xlink:href="#h"/><linearGradient y2="2599.324" x2="-6841.792" y1="2599.324" x1="-8535.589" gradientTransform="scale(1.02813 -1.02813) rotate(65 -830.492 7208.067)" gradientUnits="userSpaceOnUse" id="s" xlink:href="#i"/><linearGradient y2="2600.552" x2="-7209.654" y1="2600.552" x1="-7584.039" gradientTransform="scale(1.02813 -1.02813) rotate(65 -830.492 7208.067)" gradientUnits="userSpaceOnUse" id="t" xlink:href="#j"/><linearGradient y2="2496.689" x2="-6636.237" y1="2774.3" x1="-6873.648" gradientTransform="scale(1.02813 -1.02813) rotate(65 -830.492 7208.067)" gradientUnits="userSpaceOnUse" id="u" xlink:href="#a"/><linearGradient y2="2804.961" x2="-6936.925" y1="2804.961" x1="-8630.72" gradientTransform="scale(1.02813 -1.02813) rotate(65 -830.492 7208.067)" gradientUnits="userSpaceOnUse" id="v" xlink:href="#b"/><linearGradient y2="2635.284" x2="-7416.919" y1="2635.284" x1="-8426.256" gradientTransform="scale(1.02813 -1.02813) rotate(65 -830.492 7208.067)" gradientUnits="userSpaceOnUse" id="w" xlink:href="#c"/><linearGradient y2="2820.86" x2="-6841.793" y1="2820.86" x1="-8535.588" gradientTransform="scale(1.02813 -1.02813) rotate(65 -830.492 7208.067)" gradientUnits="userSpaceOnUse" id="x" xlink:href="#d"/><linearGradient y2="2797.879" x2="-7521.917" y1="2797.879" x1="-8412.058" gradientTransform="scale(1.02813 -1.02813) rotate(65 -830.492 7208.067)" gradientUnits="userSpaceOnUse" id="y" xlink:href="#e"/><linearGradient y2="2645.49" x2="-6841.793" y1="2645.49" x1="-8535.588" gradientTransform="scale(1.02813 -1.02813) rotate(65 -830.492 7208.067)" gradientUnits="userSpaceOnUse" id="z" xlink:href="#f"/><linearGradient y2="2654.265" x2="-6946.865" y1="2654.265" x1="-8640.659" gradientTransform="scale(1.02813 -1.02813) rotate(65 -830.492 7208.067)" gradientUnits="userSpaceOnUse" id="A" xlink:href="#g"/><linearGradient y2="2593.446" x2="-6841.792" y1="2593.446" x1="-8535.589" gradientTransform="scale(1.02813 -1.02813) rotate(65 -830.492 7208.067)" gradientUnits="userSpaceOnUse" id="B" xlink:href="#h"/><linearGradient y2="2599.324" x2="-6841.792" y1="2599.324" x1="-8535.589" gradientTransform="scale(1.02813 -1.02813) rotate(65 -830.492 7208.067)" gradientUnits="userSpaceOnUse" id="C" xlink:href="#i"/><linearGradient y2="2600.552" x2="-7209.654" y1="2600.552" x1="-7584.039" gradientTransform="scale(1.02813 -1.02813) rotate(65 -830.492 7208.067)" gradientUnits="userSpaceOnUse" id="D" xlink:href="#j"/></defs><path d="M736.1 8.1c-27.1 16-72.2 61.3-125.8 127l49.3 93.2C694.3 178.8 729.5 134.1 765 96c2.8-3 4.1-4.4 4.1-4.4-1.3 1.4-2.8 3-4.1 4.4-11.5 12.6-46.4 53.4-99 134.2 50.7-2.5 128.5-12.9 192-23.7 19-105.9-18.5-154.3-18.5-154.3s-47.6-77-103.4-44.1z" fill="url(#k)" transform="translate(-.074 .008) scale(.10592)"/><path d="M69.042 57.197c.032-.01.074-.01.116-.021l-.752.085-.127.063c.244-.053.509-.095.763-.127zm-5.349 17.689c-.424.096-.858.17-1.303.244.445-.074.879-.159 1.303-.244zm-36.29 39.669c.053-.137.106-.296.159-.434 1.154-3.04 2.298-5.995 3.421-8.877 1.26-3.23 2.51-6.355 3.76-9.384a879.56 879.56 0 013.857-9.27 544.935 544.935 0 013.93-9.046 591.173 591.173 0 013.093-6.864c.339-.741.678-1.472 1.017-2.192a414.66 414.66 0 011.98-4.216c.604-1.26 1.197-2.5 1.801-3.729.201-.402.392-.805.593-1.207.032-.064.064-.127.096-.202l-.646.064-.509-1.006c-.053.095-.095.2-.148.296-.911 1.833-1.833 3.665-2.733 5.519-.52 1.08-1.038 2.16-1.557 3.23a643.202 643.202 0 00-4.216 9.068 726.095 726.095 0 00-4.12 9.279 736.497 736.497 0 00-3.877 9.141c-1.26 3.04-2.5 6.07-3.708 9.067a730.917 730.917 0 00-3.665 9.322c-.275.699-.53 1.387-.805 2.076a762.835 762.835 0 00-2.785 7.351l.805 1.589.72-.074c.021-.074.053-.138.074-.223 1.176-3.156 2.33-6.26 3.464-9.279z" fill="none"/><path d="M60.324 83.795c-.667.116-1.345.243-2.055.36 0 0-.01 0-.01.01l1.059-.158c.328-.075.667-.138 1.006-.212z" fill="#bd202e"/><path d="M60.324 83.795c-.667.116-1.345.243-2.055.36 0 0-.01 0-.01.01l1.059-.158c.328-.075.667-.138 1.006-.212z" opacity=".35" fill="#bd202e"/><path d="M62.072 75.162s0 .01 0 0c-.01 0-.01 0-.01.01a3.15 3.15 0 00.328-.053c.445-.063.879-.137 1.303-.243-.53.095-1.06.19-1.621.286z" fill="#bd202e"/><path d="M62.072 75.162s0 .01 0 0c-.01 0-.01 0-.01.01a3.15 3.15 0 00.328-.053c.445-.063.879-.137 1.303-.243-.53.095-1.06.19-1.621.286z" opacity=".35" fill="#bd202e"/><path d="M514 469.2c15-28.1 30.2-55.5 45.5-82.1 15.9-27.8 32.1-54.6 48.4-80.6.9-1.5 2-3.1 2.9-4.6 16.1-25.5 32.4-50.1 48.7-73.5l-49.3-93.2c-3.7 4.5-7.4 9.1-11.2 13.9-14.3 17.8-29 36.8-44.2 57.1-17.1 22.8-34.6 47.2-52.5 72.8-16.4 23.6-33.2 48.3-50 74-14.3 21.8-28.5 44.2-42.7 67.2-.5.8-1 1.7-1.5 2.6l64.3 127c13.6-27.5 27.6-54.4 41.6-80.6z" fill="url(#l)" transform="translate(-.074 .008) scale(.10592)"/><path d="M221.2 1184.4c-8.5 23.3-17.1 47.2-25.6 71.5-.1.3-.2.7-.4 1-1.2 3.4-2.5 6.9-3.6 10.3-5.8 16.4-10.8 31.2-22.3 64.7 18.9 8.6 34.1 31.4 48.5 57.2-1.5-26.7-12.5-51.8-33.6-71.2 93.3 4.2 173.7-19.4 215.3-87.6 3.7-6.1 7.1-12.4 10.2-19.3-18.9 24-42.4 34.1-86.5 31.7-.1 0-.2.1-.3.1.1 0 .2-.1.3-.1 65-29.1 97.5-57 126.4-103.2 6.8-11 13.5-22.9 20.3-36.2-56.8 58.3-122.5 74.9-191.8 62.3l-52 5.7c-1.7 4.4-3.2 8.7-4.9 13.1z" fill="url(#m)" transform="translate(-.074 .008) scale(.10592)"/><path d="M245.5 1068.1c11.2-29 22.8-58.4 34.6-88 11.4-28.4 23-57 35-85.6 12-28.6 24.2-57.5 36.6-86.3 12.6-29.3 25.6-58.5 38.9-87.6 13.1-28.8 26.3-57.4 39.8-85.6 4.8-10.2 9.8-20.4 14.7-30.5 8.5-17.5 17.1-34.9 25.8-52.1.5-.9.9-1.9 1.4-2.8l-64.3-127c-1 1.7-2.1 3.5-3.2 5.1-15 24.5-29.9 49.5-44.5 75-14.8 25.8-29.3 52.1-43.5 78.8-11.9 22.5-23.6 45.1-35.1 68.1-2.3 4.6-4.5 9.3-6.8 13.9-14 28.9-26.6 56.6-38.1 83.5-13 30.3-24.4 59.3-34.3 86.8-6.6 18.1-12.5 35.5-18 52.3-4.5 14.3-8.7 28.7-12.9 43-9.6 33.6-17.9 67.2-24.7 100.6l64.6 127.5c8.5-22.8 17.3-46 26.3-69.4 2.7-6.7 5.1-13.3 7.7-19.7z" fill="url(#n)" transform="translate(-.074 .008) scale(.10592)"/><path d="M146.2 1034c-8.1 40.8-13.9 81.4-16.8 121.8l-.3 4.2c-20.2-32.3-74.1-63.8-74-63.5 38.7 56 68 111.6 72.3 166.2-20.7 4.2-49-1.9-81.7-13.9 34.1 31.4 59.7 40 69.8 42.4-31.4 2-64 23.5-96.9 48.3 48.1-19.6 87-27.4 114.8-21.1C89.2 1443.4 45 1581.4.7 1728c13.6-4 21.7-13.2 26.2-25.5 7.9-26.5 60.2-200.7 142.3-429.4 2.4-6.5 4.7-13.1 7.1-19.6.6-1.9 1.3-3.7 2-5.4 8.6-24 17.7-48.5 26.9-73.5 2.1-5.7 4.2-11.4 6.4-17.1 0-.1.1-.2.1-.3L147 1029.7c-.2 1.3-.5 2.8-.8 4.3z" fill="url(#o)" transform="translate(-.074 .008) scale(.10592)"/><path d="M482.3 560.2c-1.9 3.8-3.7 7.6-5.6 11.4-5.6 11.5-11.2 23.2-17 35.2-6.2 13-12.4 26.2-18.7 39.8-3.2 6.8-6.4 13.7-9.6 20.7-9.6 20.9-19.3 42.5-29.2 64.8-12.1 27.3-24.6 55.8-37.1 85.4-11.9 28.2-24.2 57.3-36.4 87.5-11.7 28.6-23.5 58.2-35.5 88.6-10.7 27.1-21.5 55.1-32.3 83.8-.5 1.3-1 2.8-1.5 4.1-10.8 28.5-21.7 57.8-32.6 87.8-.2.7-.5 1.3-.7 2.1l52-5.7c-1-.2-2.1-.3-3.1-.5 62.1-7.7 144.8-54.2 198.1-111.5 24.6-26.4 46.9-57.6 67.5-94.1 15.3-27.1 29.8-57.3 43.6-90.6 12-29.1 23.5-60.7 34.6-94.8-14.3 7.5-30.6 13.1-48.6 16.9-3.2.7-6.4 1.3-9.7 1.9-3.3.6-6.6 1.1-10 1.5 0 0 .1 0 .1-.1 58-22.3 94.5-65.3 121-118-15.2 10.4-40 24-69.7 30.5-4 .9-8.1 1.6-12.3 2.3-1 .1-2.1.3-3.1.5h.2c20.2-8.4 37.1-17.9 51.8-29 3.2-2.4 6.3-4.8 9.1-7.4 4.5-3.9 8.7-8 12.9-12.2 2.6-2.8 5.1-5.6 7.6-8.5 5.8-6.9 11.2-14.3 16.2-22.3 1.5-2.5 3.1-4.9 4.5-7.5 2-3.7 3.8-7.4 5.6-10.9 8.1-16.2 14.6-30.8 19.7-43.5 2.6-6.4 4.8-12.2 6.8-17.8.8-2.2 1.5-4.3 2.2-6.4 2.1-6.1 3.7-11.5 5-16.3 2-7.2 3.2-12.9 3.8-17-2 1.5-4.2 3.1-6.8 4.6-17.5 10.5-47.5 19.9-71.7 24.4l47.7-5.2-47.7 5.2c-.3.1-.7.1-1.1.2-2.5.4-4.8.8-7.3 1.1l1.2-.6-163.3 17.9c0 .4-.3 1.1-.6 1.7z" fill="url(#p)" transform="translate(-.074 .008) scale(.10592)"/><path d="M666.1 230.2c-14.5 22.3-30.3 47.6-47.5 76.3-.9 1.4-1.9 3.1-2.7 4.5-14.7 24.8-30.3 52-46.9 81.9-14.2 25.8-29 53.4-44.4 83.1-13.4 25.9-27.2 53.4-41.5 82.5l163.3-17.9c47.6-21.9 68.8-41.6 89.4-70.3 5.4-7.9 11-16.1 16.4-24.7 16.8-26.2 33.2-55 47.9-83.7 14.2-27.7 26.7-55.1 36.3-79.9 6.1-15.7 11-30.3 14.4-43.2 3-11.3 5.3-22.1 7.1-32.4-63.3 10.9-141.2 21.3-191.8 23.8z" fill="url(#q)" transform="translate(-.074 .008) scale(.10592)"/><path d="M59.297 83.985c-.35.064-.7.117-1.06.16.36-.033.72-.096 1.06-.16z" fill="#bd202e"/><path d="M59.297 83.985c-.35.064-.7.117-1.06.16.36-.033.72-.096 1.06-.16z" opacity=".35" fill="#bd202e"/><path d="M560.5 792.8c-3.3.6-6.6 1.1-10 1.5 3.4-.3 6.8-.9 10-1.5z" fill="url(#r)" transform="translate(-.074 .008) scale(.10592)"/><path d="M62.061 75.172c.106-.01.223-.031.329-.053-.106.011-.212.043-.329.053z" fill="#bd202e"/><path d="M62.061 75.172c.106-.01.223-.031.329-.053-.106.011-.212.043-.329.053z" opacity=".35" fill="#bd202e"/><path d="M586.6 709.6c1-.1 2.1-.3 3.1-.5-1 .1-2 .4-3.1.5z" fill="url(#s)" transform="translate(-.074 .008) scale(.10592)"/><path d="M62.061 75.172c.01 0 .01-.01 0 0 .01-.01.01 0 0 0z" fill="#bd202e"/><path d="M62.061 75.172c.01 0 .01-.01 0 0 .01-.01.01 0 0 0z" opacity=".35" fill="#bd202e"/><path d="M586.6 709.6c.1 0 .1-.1 0 0 .1-.1.1 0 0 0z" fill="url(#t)" transform="translate(-.074 .008) scale(.10592)"/><path d="M309.864 123.55c-1.062-.19-5.07-1.218-5.696-1.46-1.47-.567-6.518-3.153-7.11-3.642-.793-.653-.894-.732-2.338-1.807-1.43-1.066-4.497-4.133-5.562-5.563a59.732 59.732 0 00-1.106-1.449 308.17 308.17 0 01-.57-.695c-.336-.412-3.18-5.22-3.18-5.376 0-.057-.297-.765-.659-1.571a42.999 42.999 0 01-1.14-2.857 42.42 42.42 0 00-.722-1.945c-.294-.684-1.097-4.463-1.386-6.53-.307-2.184-.298-8.18.016-10.141.824-5.167 1.475-7.375 3.362-11.41.29-.622.528-1.278.528-1.46 0-.18.125-.328.278-.328.153 0 .278-.162.278-.36 0-.197.772-1.528 1.715-2.958 1.531-2.32 5.017-6.17 7.315-8.08 2.378-1.978 7.082-4.554 9.891-5.419.826-.254 1.814-.57 2.196-.702 1.412-.488 4.125-.843 7.641-1 4.532-.202 9.287.39 12.642 1.573 2.51.885 4.802 1.944 4.956 2.289.05.114.214.208.362.208.586 0 3.74 2.39 5.634 4.269 2.192 2.173 3.626 4.078 4.763 6.32.712 1.406.72 1.474.223 1.817-.284.196-.648.455-.808.574-.16.12-.617.406-1.015.635-.399.23-1.3.774-2.005 1.21-1.435.888-1.982.822-2.403-.287-1.179-3.099-6.583-8.184-10.262-9.656-4.052-1.62-6.51-2.104-10.68-2.101-4.417.004-7.259.546-10.79 2.061-1.207.518-3.78 2.055-4.321 2.581-.202.196-.453.357-.557.357-.295 0-3.385 3.05-4.745 4.683-1.472 1.768-4.028 6.314-4.632 8.237-.24.765-.546 1.64-.68 1.945-1.18 2.69-1.876 9.204-1.446 13.546.294 2.972.912 6.084 1.448 7.294.136.305.33.868.431 1.25.448 1.685 3.064 6.56 4.435 8.264 1.37 1.702 3.868 4.33 5.001 5.26 1.3 1.065 5.516 3.701 5.928 3.705.102 0 .508.17.903.376.394.206 1.832.674 3.195 1.04 2.083.56 3.075.66 6.23.631 5.276-.047 8.624-.958 13.058-3.551 2.906-1.7 6.918-5.623 8.336-8.15.535-.954 1.098-1.736 1.25-1.738.59-.008 5.974 2.922 5.974 3.25 0 .39-1.618 3.479-1.935 3.695-.113.076-.348.412-.524.746-.664 1.26-3.705 4.235-6.571 6.426-1.52 1.162-5.546 3.207-8.336 4.233-3.706 1.364-5.955 1.73-11.114 1.809-2.75.042-5.314.02-5.696-.048zm-221.73-.389c0-.155.12-.499.268-.764.148-.265.53-1.108.849-1.872.32-.764.69-1.639.825-1.945.135-.305 1.009-2.368 1.943-4.584a460.89 460.89 0 011.95-4.585 85.95 85.95 0 00.973-2.362c.395-.993.832-2.056.97-2.362.137-.305.516-1.18.84-1.944.326-.765.77-1.784.988-2.265.218-.482.397-.958.397-1.058 0-.157.533-1.438 1.392-3.346.138-.306.574-1.369.97-2.362.395-.993.833-2.056.972-2.362.14-.305.577-1.368.973-2.361a86.32 86.32 0 01.97-2.362c.137-.306.513-1.181.836-1.945.322-.764.696-1.64.83-1.945.135-.306.823-1.931 1.528-3.612a339.077 339.077 0 011.532-3.613c.138-.305.763-1.806 1.39-3.334a231.88 231.88 0 011.387-3.334c.136-.306.685-1.619 1.22-2.918 2.994-7.277 3.68-8.922 4.345-10.42.136-.305.573-1.368.971-2.361a89.74 89.74 0 011.264-2.987l.54-1.18h6.042l.62 1.458a416.01 416.01 0 001.949 4.515c.946 2.124 1.389 3.188 1.389 3.334 0 .156.533 1.414 1.548 3.654.218.482.397.958.397 1.058 0 .157.43 1.192 1.39 3.346.945 2.124 1.389 3.188 1.389 3.334 0 .094.259.757.575 1.474.317.718.763 1.743.992 2.278.228.534.526 1.222.662 1.528.135.305.57 1.368.966 2.362.396.993.831 2.056.967 2.361a634.91 634.91 0 011.95 4.585 634.258 634.258 0 001.95 4.585c.137.305.452 1.056.7 1.667 2.556 6.275 3.57 8.742 3.886 9.447.205.458.888 2.084 1.517 3.612.63 1.528 1.256 3.029 1.393 3.334.137.306.513 1.181.835 1.945.322.764.699 1.64.836 1.945.138.306.574 1.369.97 2.362.396.993.833 2.056.97 2.362 1.346 2.981 3.06 7.189 3.06 7.513 0 .337-.681.406-4.011.406-3.917 0-4.015-.015-4.201-.625-.17-.56-.817-2.128-1.517-3.682a97.559 97.559 0 01-.974-2.362 124.743 124.743 0 00-1.808-4.307c-.135-.305-.57-1.368-.966-2.361a92.221 92.221 0 00-.97-2.362c-.842-1.872-1.392-3.187-1.392-3.334 0-.094-.232-.694-.516-1.335-.284-.642-.69-1.572-.901-2.07l-.386-.902h-32.86l-.561 1.32a151.53 151.53 0 00-1.32 3.264 91.477 91.477 0 01-1.28 3.111c-.286.641-.52 1.242-.52 1.335 0 .147-.55 1.463-1.392 3.334a92.074 92.074 0 00-.97 2.362 71.754 71.754 0 01-.978 2.362c-.142.306-.71 1.681-1.263 3.056a699.462 699.462 0 01-1.148 2.848c-.182.442-8.142.506-8.142.066zm48.625-29.186c0-.265-.41-1.265-1.548-3.778-.218-.482-.397-.963-.397-1.07 0-.106-.182-.587-.404-1.069-.222-.481-1.1-2.626-1.95-4.765-.85-2.14-1.663-4.14-1.804-4.446-.142-.306-.832-2.056-1.535-3.89-.702-1.834-1.388-3.585-1.524-3.89a167.93 167.93 0 01-.663-1.528 259.1 259.1 0 00-.991-2.278c-.317-.717-.577-1.405-.578-1.528 0-.123-.163-.536-.36-.918-.197-.382-.66-1.507-1.027-2.5-.368-.994-.83-2.12-1.028-2.501-.197-.382-.359-.851-.36-1.042-.005-.585-.508-.386-.708.277-.104.344-.354 1-.556 1.46-.202.458-.882 2.083-1.512 3.611-.63 1.529-1.508 3.654-1.952 4.724l-5.245 12.642a6092.665 6092.665 0 01-4.878 11.74l-.44 1.042h14.73c10.146 0 14.73-.091 14.73-.293zm27.23-7.765V48.977l15.49.005c16.18.004 19.11.153 21.703 1.12 1.831.683 4.67 2.09 5.188 2.571.199.185.778.646 1.288 1.025 3.585 2.666 7.01 7.988 8.316 12.926 1.265 4.78.748 11.288-1.258 15.824-2.88 6.51-7.725 11.016-13.843 12.871-1.227.372-3.666.458-15.42.547l-13.962.104v27.475h-7.502V86.213zm32.975 2.756c5.126-.71 9.28-4.615 11.355-10.675.714-2.085.877-7.84.287-10.153-.801-3.142-2.27-5.751-4.451-7.908-1.082-1.07-2.341-2.132-2.798-2.361-.456-.229-.892-.484-.969-.566-.076-.082-.701-.392-1.389-.688-1.168-.503-2.12-.545-14.38-.628l-13.128-.089v33.368h11.65c6.831 0 12.549-.124 13.823-.3zm15.561 34.268c-.067-.114.358-1.333.943-2.709a999.474 999.474 0 003.463-8.335c1.319-3.21 2.566-6.21 2.773-6.669.206-.458.892-2.084 1.524-3.612 1.106-2.676 1.707-4.1 2.227-5.28.135-.305.76-1.805 1.39-3.334a278.783 278.783 0 011.51-3.612c.203-.458 1.012-2.396 1.8-4.307.787-1.91 1.793-4.348 2.236-5.418.943-2.28 4.097-9.752 4.457-10.558a99.85 99.85 0 00.967-2.362c.396-.994.832-2.056.97-2.362.137-.306.516-1.18.841-1.945.325-.764.77-1.783.988-2.265.218-.481.396-.957.396-1.057 0-.157.43-1.192 1.39-3.346.552-1.24 1.344-3.149 1.961-4.724.36-.917.768-1.824.908-2.014.177-.241 1.174-.348 3.244-.348h2.989l.362.903c.729 1.815 3.92 9.391 4.711 11.184.135.306.758 1.806 1.385 3.334a171.705 171.705 0 001.394 3.334c.141.306 1.203 2.87 2.36 5.697a554.555 554.555 0 002.355 5.696c.137.305.9 2.118 1.694 4.029 1.879 4.515 3.83 9.161 4.144 9.863.136.306.512 1.181.834 1.945.322.765.699 1.64.836 1.945.138.306.577 1.369.975 2.362.68 1.693 1.229 3.002 1.808 4.307.135.306.572 1.369.97 2.362.4.993.905 2.2 1.124 2.681.22.482.4.962.4 1.067 0 .105.375 1.001.834 1.992.458.99.833 1.867.833 1.948 0 .08.18.54.4 1.022.22.482.725 1.689 1.123 2.682.399.993.837 2.056.975 2.362.962 2.137 1.392 3.204 1.392 3.458 0 .446-7.63.395-7.99-.055-.154-.19-1.372-3.035-2.708-6.32-1.335-3.286-2.593-6.35-2.794-6.808-.201-.459-.692-1.647-1.09-2.64a97.414 97.414 0 00-.975-2.362c-.377-.836-1.259-2.94-1.66-3.961l-.357-.905-16.53.071-16.53.072-1.645 4.029a1893.59 1893.59 0 01-1.913 4.672c-.147.354-.268.704-.268.78 0 .118-.603 1.549-1.392 3.3a97.612 97.612 0 00-.975 2.362c-.398.993-.888 2.181-1.089 2.64-.2.458-.78 1.865-1.287 3.125l-.923 2.293h-3.82c-2.1 0-3.873-.094-3.94-.209zm48.436-29.113c0-.138-.957-2.519-1.783-4.438a64.417 64.417 0 01-1.011-2.64c-.36-.993-.814-2.118-1.012-2.5-.197-.382-.36-.795-.36-.918-.005-.194-.491-1.385-1.394-3.389a97.641 97.641 0 01-.974-2.362c-.399-.993-.889-2.18-1.09-2.64-.2-.458-.593-1.458-.874-2.222-.28-.764-.671-1.702-.867-2.084-.196-.382-.357-.8-.358-.93 0-.13-.183-.63-.404-1.112-.22-.482-.861-2.064-1.423-3.515a141.852 141.852 0 00-1.504-3.751c-.265-.612-.655-1.518-.867-2.015-.481-1.127-.796-1.037-1.27.363a20.124 20.124 0 01-.632 1.652c-.144.305-.526 1.18-.848 1.945-.323.764-.7 1.639-.837 1.945-.226.5-3.25 7.726-6.975 16.671-.764 1.834-1.5 3.584-1.637 3.89-.137.306-.76 1.806-1.383 3.334a190.597 190.597 0 01-1.542 3.691c-.224.502-.408.971-.408 1.042 0 .072 6.627.13 14.727.13 8.1 0 14.726-.066 14.726-.147zm93.214 28.983c-.075-.196-.104-16.923-.064-37.172l.071-36.816h7.224l.072 16.463.072 16.463h43.619V48.977h7.502v74.466h-7.502V88.71h-43.62l-.071 17.296-.072 17.297-3.548.078c-2.685.059-3.581-.009-3.683-.278zm74.89-36.894V48.977h48.902v6.947h-41.4v26.119h36.121v6.668h-36.121v27.785H478.8v6.947h-49.736z" fill="#a00"/><path d="M86.002 155.321v-23.049h3.89v9.992h11.443v-9.992h3.89v23.05h-3.89v-9.431H89.893v9.43zm34.338-19.487v19.487h-3.892v-19.487h-6.99v-3.562h17.872v3.562zm19.9 0v19.487h-3.891v-19.487h-6.99v-3.562h17.871v3.562zm19.109-3.562q5.243 0 7.65 2.012 2.407 2.011 2.407 6.199t-2.473 6.133q-2.44 1.946-7.518 1.946h-4.089v6.76h-3.89v-23.05zm.495 12.761q3.231 0 4.385-1.22 1.187-1.253 1.187-3.627 0-2.407-1.484-3.396-1.483-.99-4.649-.99h-3.957v9.233zm30.106-9.727q-1.682 0-2.77.692-1.088.693-1.088 2.11 0 1.386 1.088 2.144 1.088.726 4.617 1.583 3.56.857 5.342 2.407 1.813 1.55 1.813 4.583 0 3.001-2.275 4.88-2.275 1.88-5.968 1.88-5.408 0-9.596-3.726l2.44-2.935q3.495 3.034 7.254 3.034 1.88 0 2.968-.791 1.121-.825 1.121-2.144 0-1.352-1.055-2.077-1.022-.759-3.561-1.352-2.54-.627-3.858-1.121-1.32-.528-2.341-1.352-2.045-1.55-2.045-4.748 0-3.199 2.309-4.914 2.34-1.747 5.77-1.747 2.21 0 4.386.725 2.176.726 3.759 2.045l-2.078 2.934q-1.022-.923-2.77-1.517-1.747-.593-3.462-.593zm30.035-3.034v3.66h-12.3v6.1h11.047v3.463h-11.046v6.166h12.695v3.66h-16.586v-23.049zm23.785 7.485q0 5.705-4.98 7.189l6.034 8.375h-4.946l-5.506-7.749h-5.111v7.75h-3.891v-23.05h8.573q5.276 0 7.551 1.78 2.275 1.782 2.275 5.705zm-9.662 4.287q3.297 0 4.484-1.022 1.187-1.022 1.187-3.265 0-2.275-1.22-3.1-1.22-.856-4.352-.856h-4.946v8.243zm25.481 11.277h-4.353l-9.266-23.049h4.353l7.09 17.213 7.089-17.213h4.352zm28.728-23.049v3.66h-12.3v6.1h11.046v3.463h-11.046v6.166h12.695v3.66h-16.586v-23.049zm23.783 7.485q0 5.705-4.978 7.189l6.034 8.375h-4.946l-5.507-7.749h-5.11v7.75H293.7v-23.05h8.573q5.276 0 7.552 1.78 2.275 1.782 2.275 5.705zm-9.66 4.287q3.297 0 4.484-1.022 1.187-1.022 1.187-3.265 0-2.275-1.22-3.1-1.22-.856-4.353-.856h-4.946v8.243zm32.214-11.772q5.243 0 7.65 2.012 2.407 2.011 2.407 6.199t-2.473 6.133q-2.44 1.946-7.518 1.946h-4.09v6.76h-3.89v-23.05zm.494 12.761q3.232 0 4.386-1.22 1.187-1.253 1.187-3.627 0-2.407-1.484-3.396-1.484-.99-4.65-.99h-3.956v9.233zm32.532-5.276q0 5.705-4.979 7.189l6.035 8.375h-4.947l-5.506-7.749h-5.111v7.75h-3.891v-23.05h8.573q5.276 0 7.551 1.78 2.275 1.782 2.275 5.705zm-9.661 4.287q3.297 0 4.484-1.022 1.188-1.022 1.188-3.265 0-2.275-1.22-3.1-1.22-.856-4.353-.856h-4.946v8.243zm31.705-6.331q-2.34-2.44-5.77-2.44-3.43 0-5.804 2.44-2.34 2.44-2.34 5.935 0 3.463 2.34 5.903 2.374 2.44 5.804 2.44t5.77-2.44q2.374-2.44 2.374-5.903 0-3.495-2.374-5.935zm2.869 14.443q-3.495 3.396-8.64 3.396-5.143 0-8.639-3.396-3.495-3.43-3.495-8.508 0-5.11 3.495-8.507 3.496-3.43 8.64-3.43t8.639 3.43q3.495 3.396 3.495 8.507 0 5.078-3.495 8.508zm8.453-16.388v-3.496h11.212v15.201q0 4.023-2.045 6.035-2.044 2.011-5.243 2.011-4.023 0-6.858-2.836l2.209-3.066q2.242 2.143 4.385 2.143 1.517 0 2.572-1.022 1.089-1.022 1.089-3.067v-11.903zm33.594-3.496v3.66h-12.3v6.1h11.047v3.463H422.34v6.166h12.696v3.66h-16.587v-23.049zm15.903 19.521q2.012 0 3.463-.66 1.45-.692 3.033-2.176l2.506 2.572q-3.66 4.056-8.903 4.056-5.21 0-8.672-3.363-3.43-3.364-3.43-8.508 0-5.144 3.496-8.573 3.528-3.43 8.87-3.43 5.375 0 8.969 3.958l-2.473 2.704q-1.649-1.583-3.133-2.21-1.45-.626-3.429-.626-3.495 0-5.87 2.275-2.374 2.242-2.374 5.77 0 3.496 2.342 5.87 2.374 2.341 5.605 2.341zm22.467-15.959v19.487h-3.891v-19.487h-6.991v-3.562H480v3.562z" aria-label="HTTP SERVER PROJECT" font-weight="400" font-size="70.335" font-family="Montserrat" letter-spacing="0" word-spacing="0"/><path d="M736.1 8.1c-27.1 16-72.2 61.3-125.8 127l49.3 93.2C694.3 178.8 729.5 134.1 765 96c2.8-3 4.1-4.4 4.1-4.4-1.3 1.4-2.8 3-4.1 4.4-11.5 12.6-46.4 53.4-99 134.2 50.7-2.5 128.5-12.9 192-23.7 19-105.9-18.5-154.3-18.5-154.3s-47.6-77-103.4-44.1z" fill="url(#u)" transform="translate(-.074 .008) scale(.10592)"/><path d="M69.042 57.197c.032-.01.074-.01.116-.021l-.752.085-.127.063c.244-.053.509-.095.763-.127zm-5.349 17.689c-.424.096-.858.17-1.303.244.445-.074.879-.159 1.303-.244zm-36.29 39.669c.053-.137.106-.296.159-.434 1.154-3.04 2.298-5.995 3.421-8.877 1.26-3.23 2.51-6.355 3.76-9.384a879.56 879.56 0 013.857-9.27 544.935 544.935 0 013.93-9.046 591.173 591.173 0 013.093-6.864c.339-.741.678-1.472 1.017-2.192a414.66 414.66 0 011.98-4.216c.604-1.26 1.197-2.5 1.801-3.729.201-.402.392-.805.593-1.207.032-.064.064-.127.096-.202l-.646.064-.509-1.006c-.053.095-.095.2-.148.296-.911 1.833-1.833 3.665-2.733 5.519-.52 1.08-1.038 2.16-1.557 3.23a643.202 643.202 0 00-4.216 9.068 726.095 726.095 0 00-4.12 9.279 736.497 736.497 0 00-3.877 9.141c-1.26 3.04-2.5 6.07-3.708 9.067a730.917 730.917 0 00-3.665 9.322c-.275.699-.53 1.387-.805 2.076a762.835 762.835 0 00-2.785 7.351l.805 1.589.72-.074c.021-.074.053-.138.074-.223 1.176-3.156 2.33-6.26 3.464-9.279z" fill="none"/><path d="M60.324 83.795c-.667.116-1.345.243-2.055.36 0 0-.01 0-.01.01l1.059-.158c.328-.075.667-.138 1.006-.212z" fill="#bd202e"/><path d="M60.324 83.795c-.667.116-1.345.243-2.055.36 0 0-.01 0-.01.01l1.059-.158c.328-.075.667-.138 1.006-.212z" opacity=".35" fill="#bd202e"/><path d="M62.072 75.162s0 .01 0 0c-.01 0-.01 0-.01.01a3.15 3.15 0 00.328-.053c.445-.063.879-.137 1.303-.243-.53.095-1.06.19-1.621.286z" fill="#bd202e"/><path d="M62.072 75.162s0 .01 0 0c-.01 0-.01 0-.01.01a3.15 3.15 0 00.328-.053c.445-.063.879-.137 1.303-.243-.53.095-1.06.19-1.621.286z" opacity=".35" fill="#bd202e"/><path d="M514 469.2c15-28.1 30.2-55.5 45.5-82.1 15.9-27.8 32.1-54.6 48.4-80.6.9-1.5 2-3.1 2.9-4.6 16.1-25.5 32.4-50.1 48.7-73.5l-49.3-93.2c-3.7 4.5-7.4 9.1-11.2 13.9-14.3 17.8-29 36.8-44.2 57.1-17.1 22.8-34.6 47.2-52.5 72.8-16.4 23.6-33.2 48.3-50 74-14.3 21.8-28.5 44.2-42.7 67.2-.5.8-1 1.7-1.5 2.6l64.3 127c13.6-27.5 27.6-54.4 41.6-80.6z" fill="url(#v)" transform="translate(-.074 .008) scale(.10592)"/><path d="M221.2 1184.4c-8.5 23.3-17.1 47.2-25.6 71.5-.1.3-.2.7-.4 1-1.2 3.4-2.5 6.9-3.6 10.3-5.8 16.4-10.8 31.2-22.3 64.7 18.9 8.6 34.1 31.4 48.5 57.2-1.5-26.7-12.5-51.8-33.6-71.2 93.3 4.2 173.7-19.4 215.3-87.6 3.7-6.1 7.1-12.4 10.2-19.3-18.9 24-42.4 34.1-86.5 31.7-.1 0-.2.1-.3.1.1 0 .2-.1.3-.1 65-29.1 97.5-57 126.4-103.2 6.8-11 13.5-22.9 20.3-36.2-56.8 58.3-122.5 74.9-191.8 62.3l-52 5.7c-1.7 4.4-3.2 8.7-4.9 13.1z" fill="url(#w)" transform="translate(-.074 .008) scale(.10592)"/><path d="M245.5 1068.1c11.2-29 22.8-58.4 34.6-88 11.4-28.4 23-57 35-85.6 12-28.6 24.2-57.5 36.6-86.3 12.6-29.3 25.6-58.5 38.9-87.6 13.1-28.8 26.3-57.4 39.8-85.6 4.8-10.2 9.8-20.4 14.7-30.5 8.5-17.5 17.1-34.9 25.8-52.1.5-.9.9-1.9 1.4-2.8l-64.3-127c-1 1.7-2.1 3.5-3.2 5.1-15 24.5-29.9 49.5-44.5 75-14.8 25.8-29.3 52.1-43.5 78.8-11.9 22.5-23.6 45.1-35.1 68.1-2.3 4.6-4.5 9.3-6.8 13.9-14 28.9-26.6 56.6-38.1 83.5-13 30.3-24.4 59.3-34.3 86.8-6.6 18.1-12.5 35.5-18 52.3-4.5 14.3-8.7 28.7-12.9 43-9.6 33.6-17.9 67.2-24.7 100.6l64.6 127.5c8.5-22.8 17.3-46 26.3-69.4 2.7-6.7 5.1-13.3 7.7-19.7z" fill="url(#x)" transform="translate(-.074 .008) scale(.10592)"/><path d="M146.2 1034c-8.1 40.8-13.9 81.4-16.8 121.8l-.3 4.2c-20.2-32.3-74.1-63.8-74-63.5 38.7 56 68 111.6 72.3 166.2-20.7 4.2-49-1.9-81.7-13.9 34.1 31.4 59.7 40 69.8 42.4-31.4 2-64 23.5-96.9 48.3 48.1-19.6 87-27.4 114.8-21.1C89.2 1443.4 45 1581.4.7 1728c13.6-4 21.7-13.2 26.2-25.5 7.9-26.5 60.2-200.7 142.3-429.4 2.4-6.5 4.7-13.1 7.1-19.6.6-1.9 1.3-3.7 2-5.4 8.6-24 17.7-48.5 26.9-73.5 2.1-5.7 4.2-11.4 6.4-17.1 0-.1.1-.2.1-.3L147 1029.7c-.2 1.3-.5 2.8-.8 4.3z" fill="url(#y)" transform="translate(-.074 .008) scale(.10592)"/><path d="M482.3 560.2c-1.9 3.8-3.7 7.6-5.6 11.4-5.6 11.5-11.2 23.2-17 35.2-6.2 13-12.4 26.2-18.7 39.8-3.2 6.8-6.4 13.7-9.6 20.7-9.6 20.9-19.3 42.5-29.2 64.8-12.1 27.3-24.6 55.8-37.1 85.4-11.9 28.2-24.2 57.3-36.4 87.5-11.7 28.6-23.5 58.2-35.5 88.6-10.7 27.1-21.5 55.1-32.3 83.8-.5 1.3-1 2.8-1.5 4.1-10.8 28.5-21.7 57.8-32.6 87.8-.2.7-.5 1.3-.7 2.1l52-5.7c-1-.2-2.1-.3-3.1-.5 62.1-7.7 144.8-54.2 198.1-111.5 24.6-26.4 46.9-57.6 67.5-94.1 15.3-27.1 29.8-57.3 43.6-90.6 12-29.1 23.5-60.7 34.6-94.8-14.3 7.5-30.6 13.1-48.6 16.9-3.2.7-6.4 1.3-9.7 1.9-3.3.6-6.6 1.1-10 1.5 0 0 .1 0 .1-.1 58-22.3 94.5-65.3 121-118-15.2 10.4-40 24-69.7 30.5-4 .9-8.1 1.6-12.3 2.3-1 .1-2.1.3-3.1.5h.2c20.2-8.4 37.1-17.9 51.8-29 3.2-2.4 6.3-4.8 9.1-7.4 4.5-3.9 8.7-8 12.9-12.2 2.6-2.8 5.1-5.6 7.6-8.5 5.8-6.9 11.2-14.3 16.2-22.3 1.5-2.5 3.1-4.9 4.5-7.5 2-3.7 3.8-7.4 5.6-10.9 8.1-16.2 14.6-30.8 19.7-43.5 2.6-6.4 4.8-12.2 6.8-17.8.8-2.2 1.5-4.3 2.2-6.4 2.1-6.1 3.7-11.5 5-16.3 2-7.2 3.2-12.9 3.8-17-2 1.5-4.2 3.1-6.8 4.6-17.5 10.5-47.5 19.9-71.7 24.4l47.7-5.2-47.7 5.2c-.3.1-.7.1-1.1.2-2.5.4-4.8.8-7.3 1.1l1.2-.6-163.3 17.9c0 .4-.3 1.1-.6 1.7z" fill="url(#z)" transform="translate(-.074 .008) scale(.10592)"/><path d="M666.1 230.2c-14.5 22.3-30.3 47.6-47.5 76.3-.9 1.4-1.9 3.1-2.7 4.5-14.7 24.8-30.3 52-46.9 81.9-14.2 25.8-29 53.4-44.4 83.1-13.4 25.9-27.2 53.4-41.5 82.5l163.3-17.9c47.6-21.9 68.8-41.6 89.4-70.3 5.4-7.9 11-16.1 16.4-24.7 16.8-26.2 33.2-55 47.9-83.7 14.2-27.7 26.7-55.1 36.3-79.9 6.1-15.7 11-30.3 14.4-43.2 3-11.3 5.3-22.1 7.1-32.4-63.3 10.9-141.2 21.3-191.8 23.8z" fill="url(#A)" transform="translate(-.074 .008) scale(.10592)"/><path d="M59.297 83.985c-.35.064-.7.117-1.06.16.36-.033.72-.096 1.06-.16z" fill="#bd202e"/><path d="M59.297 83.985c-.35.064-.7.117-1.06.16.36-.033.72-.096 1.06-.16z" opacity=".35" fill="#bd202e"/><path d="M560.5 792.8c-3.3.6-6.6 1.1-10 1.5 3.4-.3 6.8-.9 10-1.5z" fill="url(#B)" transform="translate(-.074 .008) scale(.10592)"/><path d="M62.061 75.172c.106-.01.223-.031.329-.053-.106.011-.212.043-.329.053z" fill="#bd202e"/><path d="M62.061 75.172c.106-.01.223-.031.329-.053-.106.011-.212.043-.329.053z" opacity=".35" fill="#bd202e"/><path d="M586.6 709.6c1-.1 2.1-.3 3.1-.5-1 .1-2 .4-3.1.5z" fill="url(#C)" transform="translate(-.074 .008) scale(.10592)"/><path d="M62.061 75.172c.01 0 .01-.01 0 0 .01-.01.01 0 0 0z" fill="#bd202e"/><path d="M62.061 75.172c.01 0 .01-.01 0 0 .01-.01.01 0 0 0z" opacity=".35" fill="#bd202e"/><path d="M586.6 709.6c.1 0 .1-.1 0 0 .1-.1.1 0 0 0z" fill="url(#D)" transform="translate(-.074 .008) scale(.10592)"/><path d="M309.864 123.55c-1.062-.19-5.07-1.218-5.696-1.46-1.47-.567-6.518-3.153-7.11-3.642-.793-.653-.894-.732-2.338-1.807-1.43-1.066-4.497-4.133-5.562-5.563a59.732 59.732 0 00-1.106-1.449 308.17 308.17 0 01-.57-.695c-.336-.412-3.18-5.22-3.18-5.376 0-.057-.297-.765-.659-1.571a42.999 42.999 0 01-1.14-2.857 42.42 42.42 0 00-.722-1.945c-.294-.684-1.097-4.463-1.386-6.53-.307-2.184-.298-8.18.016-10.141.824-5.167 1.475-7.375 3.362-11.41.29-.622.528-1.278.528-1.46 0-.18.125-.328.278-.328.153 0 .278-.162.278-.36 0-.197.772-1.528 1.715-2.958 1.531-2.32 5.017-6.17 7.315-8.08 2.378-1.978 7.082-4.554 9.891-5.419.826-.254 1.814-.57 2.196-.702 1.412-.488 4.125-.843 7.641-1 4.532-.202 9.287.39 12.642 1.573 2.51.885 4.802 1.944 4.956 2.289.05.114.214.208.362.208.586 0 3.74 2.39 5.634 4.269 2.192 2.173 3.626 4.078 4.763 6.32.712 1.406.72 1.474.223 1.817-.284.196-.648.455-.808.574-.16.12-.617.406-1.015.635-.399.23-1.3.774-2.005 1.21-1.435.888-1.982.822-2.403-.287-1.179-3.099-6.583-8.184-10.262-9.656-4.052-1.62-6.51-2.104-10.68-2.101-4.417.004-7.259.546-10.79 2.061-1.207.518-3.78 2.055-4.321 2.581-.202.196-.453.357-.557.357-.295 0-3.385 3.05-4.745 4.683-1.472 1.768-4.028 6.314-4.632 8.237-.24.765-.546 1.64-.68 1.945-1.18 2.69-1.876 9.204-1.446 13.546.294 2.972.912 6.084 1.448 7.294.136.305.33.868.431 1.25.448 1.685 3.064 6.56 4.435 8.264 1.37 1.702 3.868 4.33 5.001 5.26 1.3 1.065 5.516 3.701 5.928 3.705.102 0 .508.17.903.376.394.206 1.832.674 3.195 1.04 2.083.56 3.075.66 6.23.631 5.276-.047 8.624-.958 13.058-3.551 2.906-1.7 6.918-5.623 8.336-8.15.535-.954 1.098-1.736 1.25-1.738.59-.008 5.974 2.922 5.974 3.25 0 .39-1.618 3.479-1.935 3.695-.113.076-.348.412-.524.746-.664 1.26-3.705 4.235-6.571 6.426-1.52 1.162-5.546 3.207-8.336 4.233-3.706 1.364-5.955 1.73-11.114 1.809-2.75.042-5.314.02-5.696-.048zm-221.73-.389c0-.155.12-.499.268-.764.148-.265.53-1.108.849-1.872.32-.764.69-1.639.825-1.945.135-.305 1.009-2.368 1.943-4.584a460.89 460.89 0 011.95-4.585 85.95 85.95 0 00.973-2.362c.395-.993.832-2.056.97-2.362.137-.305.516-1.18.84-1.944.326-.765.77-1.784.988-2.265.218-.482.397-.958.397-1.058 0-.157.533-1.438 1.392-3.346.138-.306.574-1.369.97-2.362.395-.993.833-2.056.972-2.362.14-.305.577-1.368.973-2.361a86.32 86.32 0 01.97-2.362c.137-.306.513-1.181.836-1.945.322-.764.696-1.64.83-1.945.135-.306.823-1.931 1.528-3.612a339.077 339.077 0 011.532-3.613c.138-.305.763-1.806 1.39-3.334a231.88 231.88 0 011.387-3.334c.136-.306.685-1.619 1.22-2.918 2.994-7.277 3.68-8.922 4.345-10.42.136-.305.573-1.368.971-2.361a89.74 89.74 0 011.264-2.987l.54-1.18h6.042l.62 1.458a416.01 416.01 0 001.949 4.515c.946 2.124 1.389 3.188 1.389 3.334 0 .156.533 1.414 1.548 3.654.218.482.397.958.397 1.058 0 .157.43 1.192 1.39 3.346.945 2.124 1.389 3.188 1.389 3.334 0 .094.259.757.575 1.474.317.718.763 1.743.992 2.278.228.534.526 1.222.662 1.528.135.305.57 1.368.966 2.362.396.993.831 2.056.967 2.361a634.91 634.91 0 011.95 4.585 634.258 634.258 0 001.95 4.585c.137.305.452 1.056.7 1.667 2.556 6.275 3.57 8.742 3.886 9.447.205.458.888 2.084 1.517 3.612.63 1.528 1.256 3.029 1.393 3.334.137.306.513 1.181.835 1.945.322.764.699 1.64.836 1.945.138.306.574 1.369.97 2.362.396.993.833 2.056.97 2.362 1.346 2.981 3.06 7.189 3.06 7.513 0 .337-.681.406-4.011.406-3.917 0-4.015-.015-4.201-.625-.17-.56-.817-2.128-1.517-3.682a97.559 97.559 0 01-.974-2.362 124.743 124.743 0 00-1.808-4.307c-.135-.305-.57-1.368-.966-2.361a92.221 92.221 0 00-.97-2.362c-.842-1.872-1.392-3.187-1.392-3.334 0-.094-.232-.694-.516-1.335-.284-.642-.69-1.572-.901-2.07l-.386-.902h-32.86l-.561 1.32a151.53 151.53 0 00-1.32 3.264 91.477 91.477 0 01-1.28 3.111c-.286.641-.52 1.242-.52 1.335 0 .147-.55 1.463-1.392 3.334a92.074 92.074 0 00-.97 2.362 71.754 71.754 0 01-.978 2.362c-.142.306-.71 1.681-1.263 3.056a699.462 699.462 0 01-1.148 2.848c-.182.442-8.142.506-8.142.066zm48.625-29.186c0-.265-.41-1.265-1.548-3.778-.218-.482-.397-.963-.397-1.07 0-.106-.182-.587-.404-1.069-.222-.481-1.1-2.626-1.95-4.765-.85-2.14-1.663-4.14-1.804-4.446-.142-.306-.832-2.056-1.535-3.89-.702-1.834-1.388-3.585-1.524-3.89a167.93 167.93 0 01-.663-1.528 259.1 259.1 0 00-.991-2.278c-.317-.717-.577-1.405-.578-1.528 0-.123-.163-.536-.36-.918-.197-.382-.66-1.507-1.027-2.5-.368-.994-.83-2.12-1.028-2.501-.197-.382-.359-.851-.36-1.042-.005-.585-.508-.386-.708.277-.104.344-.354 1-.556 1.46-.202.458-.882 2.083-1.512 3.611-.63 1.529-1.508 3.654-1.952 4.724l-5.245 12.642a6092.665 6092.665 0 01-4.878 11.74l-.44 1.042h14.73c10.146 0 14.73-.091 14.73-.293zm27.23-7.765V48.977l15.49.005c16.18.004 19.11.153 21.703 1.12 1.831.683 4.67 2.09 5.188 2.571.199.185.778.646 1.288 1.025 3.585 2.666 7.01 7.988 8.316 12.926 1.265 4.78.748 11.288-1.258 15.824-2.88 6.51-7.725 11.016-13.843 12.871-1.227.372-3.666.458-15.42.547l-13.962.104v27.475h-7.502V86.213zm32.975 2.756c5.126-.71 9.28-4.615 11.355-10.675.714-2.085.877-7.84.287-10.153-.801-3.142-2.27-5.751-4.451-7.908-1.082-1.07-2.341-2.132-2.798-2.361-.456-.229-.892-.484-.969-.566-.076-.082-.701-.392-1.389-.688-1.168-.503-2.12-.545-14.38-.628l-13.128-.089v33.368h11.65c6.831 0 12.549-.124 13.823-.3zm15.561 34.268c-.067-.114.358-1.333.943-2.709a999.474 999.474 0 003.463-8.335c1.319-3.21 2.566-6.21 2.773-6.669.206-.458.892-2.084 1.524-3.612 1.106-2.676 1.707-4.1 2.227-5.28.135-.305.76-1.805 1.39-3.334a278.783 278.783 0 011.51-3.612c.203-.458 1.012-2.396 1.8-4.307.787-1.91 1.793-4.348 2.236-5.418.943-2.28 4.097-9.752 4.457-10.558a99.85 99.85 0 00.967-2.362c.396-.994.832-2.056.97-2.362.137-.306.516-1.18.841-1.945.325-.764.77-1.783.988-2.265.218-.481.396-.957.396-1.057 0-.157.43-1.192 1.39-3.346.552-1.24 1.344-3.149 1.961-4.724.36-.917.768-1.824.908-2.014.177-.241 1.174-.348 3.244-.348h2.989l.362.903c.729 1.815 3.92 9.391 4.711 11.184.135.306.758 1.806 1.385 3.334a171.705 171.705 0 001.394 3.334c.141.306 1.203 2.87 2.36 5.697a554.555 554.555 0 002.355 5.696c.137.305.9 2.118 1.694 4.029 1.879 4.515 3.83 9.161 4.144 9.863.136.306.512 1.181.834 1.945.322.765.699 1.64.836 1.945.138.306.577 1.369.975 2.362.68 1.693 1.229 3.002 1.808 4.307.135.306.572 1.369.97 2.362.4.993.905 2.2 1.124 2.681.22.482.4.962.4 1.067 0 .105.375 1.001.834 1.992.458.99.833 1.867.833 1.948 0 .08.18.54.4 1.022.22.482.725 1.689 1.123 2.682.399.993.837 2.056.975 2.362.962 2.137 1.392 3.204 1.392 3.458 0 .446-7.63.395-7.99-.055-.154-.19-1.372-3.035-2.708-6.32-1.335-3.286-2.593-6.35-2.794-6.808-.201-.459-.692-1.647-1.09-2.64a97.414 97.414 0 00-.975-2.362c-.377-.836-1.259-2.94-1.66-3.961l-.357-.905-16.53.071-16.53.072-1.645 4.029a1893.59 1893.59 0 01-1.913 4.672c-.147.354-.268.704-.268.78 0 .118-.603 1.549-1.392 3.3a97.612 97.612 0 00-.975 2.362c-.398.993-.888 2.181-1.089 2.64-.2.458-.78 1.865-1.287 3.125l-.923 2.293h-3.82c-2.1 0-3.873-.094-3.94-.209zm48.436-29.113c0-.138-.957-2.519-1.783-4.438a64.417 64.417 0 01-1.011-2.64c-.36-.993-.814-2.118-1.012-2.5-.197-.382-.36-.795-.36-.918-.005-.194-.491-1.385-1.394-3.389a97.641 97.641 0 01-.974-2.362c-.399-.993-.889-2.18-1.09-2.64-.2-.458-.593-1.458-.874-2.222-.28-.764-.671-1.702-.867-2.084-.196-.382-.357-.8-.358-.93 0-.13-.183-.63-.404-1.112-.22-.482-.861-2.064-1.423-3.515a141.852 141.852 0 00-1.504-3.751c-.265-.612-.655-1.518-.867-2.015-.481-1.127-.796-1.037-1.27.363a20.124 20.124 0 01-.632 1.652c-.144.305-.526 1.18-.848 1.945-.323.764-.7 1.639-.837 1.945-.226.5-3.25 7.726-6.975 16.671-.764 1.834-1.5 3.584-1.637 3.89-.137.306-.76 1.806-1.383 3.334a190.597 190.597 0 01-1.542 3.691c-.224.502-.408.971-.408 1.042 0 .072 6.627.13 14.727.13 8.1 0 14.726-.066 14.726-.147zm93.214 28.983c-.075-.196-.104-16.923-.064-37.172l.071-36.816h7.224l.072 16.463.072 16.463h43.619V48.977h7.502v74.466h-7.502V88.71h-43.62l-.071 17.296-.072 17.297-3.548.078c-2.685.059-3.581-.009-3.683-.278zm74.89-36.894V48.977h48.902v6.947h-41.4v26.119h36.121v6.668h-36.121v27.785H478.8v6.947h-49.736z" fill="#a00"/><path d="M86.002 155.321v-23.049h3.89v9.992h11.443v-9.992h3.89v23.05h-3.89v-9.431H89.893v9.43zm34.338-19.487v19.487h-3.892v-19.487h-6.99v-3.562h17.872v3.562zm19.9 0v19.487h-3.891v-19.487h-6.99v-3.562h17.871v3.562zm19.109-3.562q5.243 0 7.65 2.012 2.407 2.011 2.407 6.199t-2.473 6.133q-2.44 1.946-7.518 1.946h-4.089v6.76h-3.89v-23.05zm.495 12.761q3.231 0 4.385-1.22 1.187-1.253 1.187-3.627 0-2.407-1.484-3.396-1.483-.99-4.649-.99h-3.957v9.233zm30.106-9.727q-1.682 0-2.77.692-1.088.693-1.088 2.11 0 1.386 1.088 2.144 1.088.726 4.617 1.583 3.56.857 5.342 2.407 1.813 1.55 1.813 4.583 0 3.001-2.275 4.88-2.275 1.88-5.968 1.88-5.408 0-9.596-3.726l2.44-2.935q3.495 3.034 7.254 3.034 1.88 0 2.968-.791 1.121-.825 1.121-2.144 0-1.352-1.055-2.077-1.022-.759-3.561-1.352-2.54-.627-3.858-1.121-1.32-.528-2.341-1.352-2.045-1.55-2.045-4.748 0-3.199 2.309-4.914 2.34-1.747 5.77-1.747 2.21 0 4.386.725 2.176.726 3.759 2.045l-2.078 2.934q-1.022-.923-2.77-1.517-1.747-.593-3.462-.593zm30.035-3.034v3.66h-12.3v6.1h11.047v3.463h-11.046v6.166h12.695v3.66h-16.586v-23.049zm23.785 7.485q0 5.705-4.98 7.189l6.034 8.375h-4.946l-5.506-7.749h-5.111v7.75h-3.891v-23.05h8.573q5.276 0 7.551 1.78 2.275 1.782 2.275 5.705zm-9.662 4.287q3.297 0 4.484-1.022 1.187-1.022 1.187-3.265 0-2.275-1.22-3.1-1.22-.856-4.352-.856h-4.946v8.243zm25.481 11.277h-4.353l-9.266-23.049h4.353l7.09 17.213 7.089-17.213h4.352zm28.728-23.049v3.66h-12.3v6.1h11.046v3.463h-11.046v6.166h12.695v3.66h-16.586v-23.049zm23.783 7.485q0 5.705-4.978 7.189l6.034 8.375h-4.946l-5.507-7.749h-5.11v7.75H293.7v-23.05h8.573q5.276 0 7.552 1.78 2.275 1.782 2.275 5.705zm-9.66 4.287q3.297 0 4.484-1.022 1.187-1.022 1.187-3.265 0-2.275-1.22-3.1-1.22-.856-4.353-.856h-4.946v8.243zm32.214-11.772q5.243 0 7.65 2.012 2.407 2.011 2.407 6.199t-2.473 6.133q-2.44 1.946-7.518 1.946h-4.09v6.76h-3.89v-23.05zm.494 12.761q3.232 0 4.386-1.22 1.187-1.253 1.187-3.627 0-2.407-1.484-3.396-1.484-.99-4.65-.99h-3.956v9.233zm32.532-5.276q0 5.705-4.979 7.189l6.035 8.375h-4.947l-5.506-7.749h-5.111v7.75h-3.891v-23.05h8.573q5.276 0 7.551 1.78 2.275 1.782 2.275 5.705zm-9.661 4.287q3.297 0 4.484-1.022 1.188-1.022 1.188-3.265 0-2.275-1.22-3.1-1.22-.856-4.353-.856h-4.946v8.243zm31.705-6.331q-2.34-2.44-5.77-2.44-3.43 0-5.804 2.44-2.34 2.44-2.34 5.935 0 3.463 2.34 5.903 2.374 2.44 5.804 2.44t5.77-2.44q2.374-2.44 2.374-5.903 0-3.495-2.374-5.935zm2.869 14.443q-3.495 3.396-8.64 3.396-5.143 0-8.639-3.396-3.495-3.43-3.495-8.508 0-5.11 3.495-8.507 3.496-3.43 8.64-3.43t8.639 3.43q3.495 3.396 3.495 8.507 0 5.078-3.495 8.508zm8.453-16.388v-3.496h11.212v15.201q0 4.023-2.045 6.035-2.044 2.011-5.243 2.011-4.023 0-6.858-2.836l2.209-3.066q2.242 2.143 4.385 2.143 1.517 0 2.572-1.022 1.089-1.022 1.089-3.067v-11.903zm33.594-3.496v3.66h-12.3v6.1h11.047v3.463H422.34v6.166h12.696v3.66h-16.587v-23.049zm15.903 19.521q2.012 0 3.463-.66 1.45-.692 3.033-2.176l2.506 2.572q-3.66 4.056-8.903 4.056-5.21 0-8.672-3.363-3.43-3.364-3.43-8.508 0-5.144 3.496-8.573 3.528-3.43 8.87-3.43 5.375 0 8.969 3.958l-2.473 2.704q-1.649-1.583-3.133-2.21-1.45-.626-3.429-.626-3.495 0-5.87 2.275-2.374 2.242-2.374 5.77 0 3.496 2.342 5.87 2.374 2.341 5.605 2.341zm22.467-15.959v19.487h-3.891v-19.487h-6.991v-3.562H480v3.562z" aria-label="HTTP SERVER PROJECT" font-weight="400" font-size="70.335" font-family="Montserrat" letter-spacing="0" word-spacing="0"/></svg>